<svg width="50" height="50" viewBox="0 0 50 50" fill="none" xmlns="http://www.w3.org/2000/svg">
<path fill-rule="evenodd" clip-rule="evenodd" d="M25.0001 4.16675C36.5063 4.16675 45.8334 13.4938 45.8334 25.0001C45.8334 36.5063 36.5063 45.8334 25.0001 45.8334C13.4938 45.8334 4.16675 36.5063 4.16675 25.0001C4.16675 13.4938 13.4938 4.16675 25.0001 4.16675ZM25.0001 29.1667C22.4616 29.1625 20.0097 30.089 18.1084 31.7709C17.694 32.1367 17.4419 32.6521 17.4075 33.2038C17.3731 33.7555 17.5593 34.2982 17.9251 34.7126C18.2909 35.127 18.8063 35.3791 19.3579 35.4135C19.9096 35.4479 20.4523 35.2617 20.8667 34.8959C22.0083 33.8892 23.478 33.3336 25.0001 33.3334C26.5855 33.3334 28.0313 33.9209 29.1334 34.8959C29.5478 35.2617 30.0905 35.4479 30.6422 35.4135C31.1939 35.3791 31.7093 35.127 32.0751 34.7126C32.4409 34.2982 32.627 33.7555 32.5927 33.2038C32.5583 32.6521 32.3062 32.1367 31.8917 31.7709C29.9905 30.089 27.5385 29.1625 25.0001 29.1667ZM18.1397 17.2772C17.7648 16.9035 17.2617 16.6866 16.7326 16.6704C16.2036 16.6543 15.6882 16.8401 15.2912 17.1902C14.8942 17.5403 14.6453 18.0283 14.5951 18.5552C14.5449 19.0822 14.6971 19.6084 15.0209 20.0272L15.1938 20.223L15.8042 20.8334L15.1938 21.4438C14.8202 21.8187 14.6033 22.3218 14.5871 22.8509C14.571 23.3799 14.7568 23.8953 15.1069 24.2923C15.4569 24.6893 15.945 24.9382 16.4719 24.9884C16.9988 25.0386 17.5251 24.8864 17.9438 24.5626L18.1397 24.3897L18.7501 23.7792L19.3605 24.3897C19.7354 24.7633 20.2385 24.9802 20.7675 24.9964C21.2966 25.0125 21.812 24.8267 22.209 24.4766C22.606 24.1266 22.8549 23.6385 22.9051 23.1116C22.9553 22.5847 22.803 22.0584 22.4792 21.6397L22.3063 21.4438L21.6959 20.8334L22.3063 20.223C22.68 19.8481 22.8969 19.345 22.9131 18.8159C22.9292 18.2869 22.7434 17.7715 22.3933 17.3745C22.0432 16.9775 21.5552 16.7286 21.0283 16.6784C20.5013 16.6282 19.9751 16.7805 19.5563 17.1042L19.3605 17.2772L18.7501 17.8876L18.1397 17.2772ZM27.6938 17.2772C27.3033 17.6678 27.0839 18.1977 27.0839 18.7501C27.0839 19.3025 27.3033 19.8323 27.6938 20.223L28.3043 20.8334L27.6938 21.4438C27.3143 21.8368 27.1043 22.363 27.1091 22.9093C27.1138 23.4555 27.3329 23.978 27.7192 24.3643C28.1055 24.7506 28.628 24.9697 29.1742 24.9744C29.7205 24.9792 30.2467 24.7692 30.6397 24.3897L31.2501 23.7792L31.8605 24.3897C32.2534 24.7692 32.7797 24.9792 33.3259 24.9744C33.8722 24.9697 34.3947 24.7506 34.781 24.3643C35.1672 23.978 35.3863 23.4555 35.3911 22.9093C35.3958 22.363 35.1858 21.8368 34.8063 21.4438L34.1959 20.8334L34.8063 20.223C35.1858 19.8301 35.3958 19.3038 35.3911 18.7576C35.3863 18.2113 35.1672 17.6888 34.781 17.3025C34.3947 16.9163 33.8722 16.6972 33.3259 16.6924C32.7797 16.6877 32.2534 16.8977 31.8605 17.2772L31.2501 17.8876L30.6397 17.2772C30.249 16.8866 29.7192 16.6672 29.1667 16.6672C28.6143 16.6672 28.0845 16.8866 27.6938 17.2772Z" fill="#CDCDCD"/>
</svg>
