<svg width="50" height="50" viewBox="0 0 50 50" fill="none" xmlns="http://www.w3.org/2000/svg">
<path fill-rule="evenodd" clip-rule="evenodd" d="M25.0001 4.16675C36.5063 4.16675 45.8334 13.4938 45.8334 25.0001C45.8334 36.5063 36.5063 45.8334 25.0001 45.8334C13.4938 45.8334 4.16675 36.5063 4.16675 25.0001C4.16675 13.4938 13.4938 4.16675 25.0001 4.16675ZM29.1334 29.6876C28.0293 30.6626 26.5855 31.2501 25.0001 31.2501C23.478 31.2499 22.0083 30.6943 20.8667 29.6876C20.4523 29.3218 19.9096 29.1356 19.3579 29.17C18.8063 29.2044 18.2909 29.4565 17.9251 29.8709C17.5593 30.2853 17.3731 30.8281 17.4075 31.3797C17.4419 31.9314 17.694 32.4468 18.1084 32.8126C20.0117 34.4911 22.4623 35.4172 25.0001 35.4167C27.5385 35.421 29.9905 34.4945 31.8917 32.8126C32.3062 32.4468 32.5583 31.9314 32.5927 31.3797C32.627 30.8281 32.4409 30.2853 32.0751 29.8709C31.7093 29.4565 31.1939 29.2044 30.6422 29.17C30.0905 29.1356 29.5478 29.3218 29.1334 29.6876ZM17.7084 16.6667C15.4438 16.6667 13.6292 18.0834 12.7209 19.9001C12.4821 20.3754 12.4342 20.924 12.5869 21.4335C12.7396 21.943 13.0814 22.3748 13.5423 22.6404C14.0031 22.906 14.5481 22.9852 15.0655 22.8619C15.5829 22.7386 16.0336 22.4221 16.3251 21.9772L16.4459 21.7667C16.7834 21.0917 17.3001 20.8334 17.7084 20.8334C18.0626 20.8334 18.5042 21.0313 18.8355 21.5334L18.9709 21.7667C19.221 22.2563 19.6545 22.6272 20.1768 22.7985C20.6992 22.9699 21.2681 22.9278 21.7595 22.6815C22.251 22.4353 22.6252 22.0047 22.8006 21.4837C22.976 20.9627 22.9384 20.3935 22.6959 19.9001C21.7855 18.0834 19.973 16.6667 17.7084 16.6667ZM32.2917 16.6667C30.0272 16.6667 28.2147 18.0834 27.3042 19.9001C27.0655 20.3754 27.0175 20.924 27.1702 21.4335C27.3229 21.943 27.6647 22.3748 28.1256 22.6404C28.5864 22.906 29.1314 22.9852 29.6488 22.8619C30.1663 22.7386 30.6169 22.4221 30.9084 21.9772L31.0293 21.7667C31.3668 21.0917 31.8834 20.8334 32.2917 20.8334C32.6459 20.8334 33.0876 21.0313 33.4188 21.5334L33.5543 21.7667C33.6755 22.0135 33.8444 22.2338 34.0513 22.415C34.2581 22.5961 34.4987 22.7346 34.7593 22.8223C35.0199 22.91 35.2952 22.9453 35.5695 22.9261C35.8438 22.9069 36.1115 22.8336 36.3573 22.7104C36.6032 22.5872 36.8221 22.4166 37.0017 22.2084C37.1813 22.0002 37.3178 21.7585 37.4035 21.4972C37.4892 21.236 37.5224 20.9603 37.501 20.6862C37.4797 20.4121 37.4043 20.1449 37.2792 19.9001C36.3709 18.0834 34.5563 16.6667 32.2917 16.6667Z" fill="#CDCDCD"/>
</svg>
