<svg width="111" height="37" viewBox="0 0 111 37" fill="none" xmlns="http://www.w3.org/2000/svg">
<path d="M11.9937 11.3994H7.24197C6.73172 11.3994 6.31714 10.9867 6.31714 10.4787V6.89899C6.31714 6.39101 6.73172 5.97827 7.24197 5.97827H25.7944C26.3047 5.97827 26.7193 6.39101 26.7193 6.89899V10.4787C26.7193 10.9867 26.3047 11.3994 25.7944 11.3994H21.0427C20.5325 11.3994 20.1179 11.8121 20.1179 12.3201V32.2902C20.1179 32.7982 19.7033 33.2109 19.193 33.2109H13.8274C13.3172 33.2109 12.9026 32.7982 12.9026 32.2902V12.3201C12.9026 11.8121 12.488 11.3994 11.9778 11.3994H11.9937Z" fill="#86D650"/>
<path d="M26.4639 32.0837C25.1245 31.3376 24.096 30.2978 23.3785 28.9644C22.653 27.6309 22.2942 26.0911 22.2942 24.3449C22.2942 21.424 23.1393 19.2016 24.8375 17.6697C26.5357 16.1378 28.784 15.3759 31.5744 15.3759C32.1724 15.3759 32.8182 15.4155 33.5197 15.4949C34.2213 15.5743 34.7396 15.6775 35.0904 15.7965L34.604 20.5271C34.4286 20.4081 34.1257 20.3128 33.6872 20.2255C33.2487 20.1461 32.7942 20.1064 32.3238 20.1064C31.1519 20.1064 30.1951 20.4398 29.4616 21.1065C28.7282 21.7733 28.3614 22.821 28.3614 24.2417C28.3614 25.6625 28.6803 26.6547 29.3181 27.3611C29.956 28.0595 30.9446 28.4088 32.292 28.4088C32.9617 28.4088 33.5038 28.385 33.9184 28.3453C34.3649 28.3056 34.7555 28.6072 34.7794 29.02L34.9867 32.0361C35.0106 32.3695 34.7954 32.679 34.4605 32.7743C34.1735 32.8536 33.8147 32.933 33.3922 33.0044C32.6268 33.1314 31.8853 33.1949 31.1598 33.1949C29.366 33.1949 27.7954 32.8219 26.4639 32.0758V32.0837ZM26.1928 22.5908H33.2248C33.6553 22.5908 34.0061 22.9162 34.0061 23.321V25.2577C34.0061 25.6625 33.6553 25.9879 33.2248 25.9879H25.8022C25.3158 25.9879 24.9491 25.5752 25.0368 25.1228L25.4195 23.1861C25.4912 22.8369 25.8101 22.5908 26.1849 22.5908H26.1928Z" fill="#86D650"/>
<path d="M38.3354 31.8456C36.972 30.9408 36.2864 29.5756 36.2864 27.7421C36.2864 26.1467 36.9242 24.7735 38.1919 23.6226C39.4595 22.4717 41.947 21.7415 45.6543 21.432L46.4994 21.3605L46.1327 21.7177C45.9892 20.8605 45.6144 20.289 45.0165 20.0033C44.4185 19.7175 43.6691 19.5747 42.7682 19.5747C42.0347 19.5747 41.2055 19.7016 40.2648 19.9477C39.7067 20.0985 39.1805 20.2652 38.6862 20.4636C38.1919 20.6621 37.6896 20.3207 37.6577 19.8207L37.4982 17.1617C37.4823 16.8919 37.6098 16.622 37.849 16.4871C38.5187 16.0902 39.3399 15.7648 40.3046 15.4949C41.4607 15.1774 42.5529 15.0107 43.5814 15.0107C45.3832 15.0107 46.898 15.225 48.1179 15.6537C49.3377 16.0823 50.2944 16.8601 50.988 17.9713C51.6817 19.0905 52.0325 20.662 52.0325 22.686V31.6075C52.0325 31.9647 51.7694 32.2663 51.4186 32.3377L49.1384 32.7901C47.2648 33.0759 45.4789 33.2187 43.7967 33.2187C41.5324 33.2187 39.7146 32.7663 38.3513 31.8615L38.3354 31.8456ZM46.1964 24.0671L46.5632 24.3846L45.6144 24.4878C43.2944 24.7497 42.1383 25.5673 42.1383 26.9483C42.1383 27.7103 42.3695 28.2659 42.832 28.6231C43.2944 28.9803 43.8923 29.1549 44.6258 29.1628C45.3115 29.1628 45.9174 28.9961 46.4516 28.6628L46.1964 29.0914V24.0592V24.0671Z" fill="#86D650"/>
<path d="M54.1531 6.34333C54.1531 5.83534 54.5677 5.42261 55.0779 5.42261H64.3342C66.5745 5.42261 68.4242 5.57342 69.8832 5.85916C71.3422 6.15283 72.4903 6.70844 73.3354 7.53391C74.1725 8.35938 74.5951 9.55791 74.5951 11.1454C74.5951 12.4391 74.2602 13.5106 73.5825 14.3599C72.9049 15.2092 71.8285 15.8839 70.3536 16.3839C72.1235 16.7649 73.447 17.5586 74.332 18.7651C75.2169 19.9716 75.6554 21.6463 75.6554 23.7894C75.6554 26.4007 74.7625 28.5279 72.9766 30.1788C71.1907 31.8218 68.4242 32.6473 64.685 32.6473H55.0779C54.5677 32.6473 54.1531 32.2346 54.1531 31.7266V6.34333ZM67.4436 26.0991C68.0734 25.5276 68.3923 24.6545 68.3923 23.4798C68.3923 22.3051 68.1053 21.4558 67.5313 20.924C66.9572 20.3922 65.8889 20.1303 64.3262 20.1303H60.4754C59.9652 20.1303 59.5506 19.7176 59.5506 19.2096V15.5346C59.5506 15.0267 59.9652 14.6139 60.4754 14.6139H65.1634C66.0164 14.6139 66.6702 14.479 67.1087 14.2171C67.5552 13.9551 67.7704 13.4868 67.7704 12.8042C67.7704 12.1851 67.5791 11.7565 67.1964 11.5025C66.8137 11.2565 66.1918 11.1295 65.3388 11.1295H62.2773C61.767 11.1295 61.3524 11.5422 61.3524 12.0502V26.0277C61.3524 26.5356 61.767 26.9484 62.2773 26.9484H64.5893C65.857 26.9484 66.8057 26.6626 67.4436 26.0912V26.0991Z" fill="#86D650"/>
<path d="M81.6352 10.8437H76.8835C76.3732 10.8437 75.9586 10.431 75.9586 9.92302V6.34333C75.9586 5.83534 76.3732 5.42261 76.8835 5.42261H95.4359C95.9462 5.42261 96.3608 5.83534 96.3608 6.34333V9.92302C96.3608 10.431 95.9462 10.8437 95.4359 10.8437H90.6842C90.1739 10.8437 89.7594 11.2565 89.7594 11.7645V31.7345C89.7594 32.2425 89.3448 32.6552 88.8345 32.6552H83.4689C82.9587 32.6552 82.5441 32.2425 82.5441 31.7345V11.7645C82.5441 11.2565 82.1295 10.8437 81.6192 10.8437H81.6352Z" fill="#86D650"/>
<path d="M104.022 32.6393H98.5213C98.011 32.6393 97.5964 32.2265 97.5964 31.7185V6.33527C97.5964 5.82729 98.011 5.41455 98.5213 5.41455H104.022C104.533 5.41455 104.947 5.82729 104.947 6.33527V31.7185C104.947 32.2265 104.533 32.6393 104.022 32.6393Z" fill="#86D650"/>
<path d="M42.2486 13.5791C42.2486 13.5791 40.1334 9.38581 48.2427 8C48.2427 8 49.405 15.2737 42.5392 14.211C42.5392 14.211 45.5126 13.7946 45.3436 10.6137C45.3436 10.6137 44.8368 12.9832 42.2486 13.572V13.5791Z" fill="#86D650"/>
</svg>
