<svg width="20" height="20" viewBox="0 0 20 20" fill="none" xmlns="http://www.w3.org/2000/svg">
<path d="M12.295 2.98004L17.019 7.70504C17.2958 7.98178 17.4853 8.33367 17.5641 8.71708C17.6428 9.1005 17.6073 9.4986 17.462 9.86204L15.097 15.775C14.9643 16.106 14.7455 16.3956 14.4633 16.6136C14.1811 16.8316 13.8458 16.9702 13.492 17.015L8.413 17.65C8.28234 17.6654 8.14567 17.684 8.00301 17.706L7.559 17.778L7.327 17.82L6.604 17.96L6.109 18.065L5.364 18.233L4.409 18.461L2.857 18.857L2.211 19.031C2.04798 19.0759 1.87631 19.0791 1.71174 19.0403C1.54716 19.0015 1.39495 18.9221 1.26905 18.8092C1.14316 18.6964 1.04761 18.5537 0.991167 18.3944C0.934725 18.235 0.919196 18.064 0.946005 17.897L0.980005 17.751L1.275 16.639L1.539 15.591L1.767 14.636L1.934 13.891L2.039 13.395L2.18 12.673L2.26 12.216L2.324 11.788L2.984 6.50804C3.02892 6.15415 3.16768 5.81871 3.38589 5.5365C3.60409 5.25429 3.89381 5.03558 4.225 4.90304L10.138 2.53804C10.5014 2.39271 10.8995 2.35721 11.283 2.43596C11.6664 2.51471 12.0183 2.70323 12.295 2.98004ZM8.585 8.58504C8.33236 8.83785 8.15208 9.15374 8.06291 9.49985C7.97375 9.84595 7.97896 10.2096 8.078 10.553C8.0051 10.5957 7.9379 10.6475 7.87801 10.707L3.82 14.765C3.79341 14.792 3.77503 14.826 3.767 14.863L3.678 15.248L3.5 15.991L3.414 16.342C3.4052 16.3758 3.40538 16.4113 3.41452 16.4449C3.42366 16.4786 3.44144 16.5093 3.46611 16.5339C3.49077 16.5586 3.52146 16.5764 3.55512 16.5855C3.58878 16.5947 3.62425 16.5948 3.658 16.586L4.375 16.411L5.138 16.233C5.17479 16.2246 5.20842 16.2058 5.235 16.179L9.293 12.121C9.35251 12.0615 9.40425 11.9946 9.447 11.922C9.78585 12.0195 10.1444 12.0256 10.4864 11.9397C10.8284 11.8539 11.1416 11.6792 11.3943 11.4334C11.647 11.1875 11.8302 10.8792 11.9254 10.5397C12.0205 10.2002 12.0242 9.84162 11.9362 9.50022C11.8481 9.15883 11.6713 8.84679 11.4238 8.59573C11.1762 8.34466 10.8667 8.16349 10.5266 8.07058C10.1865 7.97767 9.82788 7.97632 9.48708 8.06667C9.14628 8.15702 8.83542 8.33585 8.58601 8.58504H8.585ZM13.243 1.10104C13.4151 0.928718 13.6441 0.825103 13.8871 0.809637C14.1302 0.794172 14.3705 0.867919 14.563 1.01704L14.657 1.10104L18.9 5.34304C19.0813 5.52258 19.187 5.76461 19.1957 6.01959C19.2043 6.27457 19.1152 6.52321 18.9465 6.71462C18.7779 6.90604 18.5424 7.02574 18.2884 7.04925C18.0343 7.07275 17.7809 6.99826 17.58 6.84104L17.485 6.75704L13.243 2.51504C13.0555 2.32751 12.9502 2.07321 12.9502 1.80804C12.9502 1.54288 13.0555 1.28857 13.243 1.10104Z" fill="black"/>
</svg>
