<svg width="50" height="50" viewBox="0 0 50 50" fill="none" xmlns="http://www.w3.org/2000/svg">
<path fill-rule="evenodd" clip-rule="evenodd" d="M25.0001 4.16675C36.5063 4.16675 45.8334 13.4938 45.8334 25.0001C45.8334 36.5063 36.5063 45.8334 25.0001 45.8334C13.4938 45.8334 4.16675 36.5063 4.16675 25.0001C4.16675 13.4938 13.4938 4.16675 25.0001 4.16675ZM21.1834 32.1772C21.0316 32.4048 20.9261 32.6601 20.8729 32.9285C20.8197 33.1969 20.8199 33.4732 20.8735 33.7415C20.9817 34.2834 21.3008 34.7601 21.7605 35.0668C22.2202 35.3734 22.7829 35.4849 23.3248 35.3767C23.8667 35.2684 24.3434 34.9494 24.6501 34.4897C26.3147 31.9918 29.6313 30.3876 32.8272 31.1876C33.0933 31.2563 33.3704 31.2716 33.6424 31.2328C33.9145 31.1939 34.1762 31.1016 34.4125 30.9611C34.6487 30.8207 34.8548 30.6349 35.0189 30.4144C35.1831 30.194 35.3019 29.9432 35.3687 29.6766C35.4355 29.41 35.4489 29.1328 35.4081 28.8611C35.3673 28.5893 35.2731 28.3282 35.131 28.093C34.9888 27.8578 34.8016 27.653 34.58 27.4904C34.3583 27.3279 34.1067 27.2108 33.8397 27.1459C28.7022 25.8626 23.6855 28.4251 21.1834 32.1772ZM19.7917 16.6667C18.9629 16.6667 18.1681 16.996 17.582 17.582C16.996 18.1681 16.6667 18.9629 16.6667 19.7917C16.6667 20.6206 16.996 21.4154 17.582 22.0015C18.1681 22.5875 18.9629 22.9167 19.7917 22.9167C20.6206 22.9167 21.4154 22.5875 22.0015 22.0015C22.5875 21.4154 22.9167 20.6206 22.9167 19.7917C22.9167 18.9629 22.5875 18.1681 22.0015 17.582C21.4154 16.996 20.6206 16.6667 19.7917 16.6667ZM32.2917 14.5834C31.4629 14.5834 30.6681 14.9127 30.082 15.4987C29.496 16.0848 29.1667 16.8796 29.1667 17.7084C29.1667 18.5372 29.496 19.3321 30.082 19.9181C30.6681 20.5042 31.4629 20.8334 32.2917 20.8334C33.1206 20.8334 33.9154 20.5042 34.5015 19.9181C35.0875 19.3321 35.4167 18.5372 35.4167 17.7084C35.4167 16.8796 35.0875 16.0848 34.5015 15.4987C33.9154 14.9127 33.1206 14.5834 32.2917 14.5834Z" fill="#406A24"/>
</svg>
